# xmcd
#
# Track frame offsets: 
#        150
#        30087
#        56353
#        76496
#        100562
#        126973
#        155406
#        179741
#        208527
#        236729
#        255542
#
# Disc length: 3785 seconds
#
# Revision: 4
# Processed by: cddbd v1.5.2PL0 Copyright (c) Steve Scherf et al.
# Submitted via: ExactAudioCopy v1.0b4
#
DISCID=860ec70b
DTITLE=Ulf Wakenius - Love Is Real
DYEAR=2008
DGENRE=Jazz
TTITLE0=Seven Days Of Falling
TTITLE1=Dodge The Dodo
TTITLE2=Believe Beleft Below
TTITLE3=Tuesday Wonderland
TTITLE4=Elevation Of Love
TTITLE5=Pavane 'Thoughts Of A Septuagenarian'
TTITLE6=Good Morning Susie Soho
TTITLE7=Eighthundred Streets By Feet
TTITLE8=When God Created The Coffeebreak
TTITLE9=Shining On You
TTITLE10=Viaticum
EXTD=YEAR: 2008
EXTT0=
EXTT1=
EXTT2=
EXTT3=
EXTT4=
EXTT5=
EXTT6=
EXTT7=
EXTT8=
EXTT9=
EXTT10=
PLAYORDER=
